<svg width="63" height="63" viewBox="0 0 63 63" fill="none" xmlns="http://www.w3.org/2000/svg">
<circle cx="31.5" cy="31.5" r="31.5" fill="#2ABFB3"/>
<path d="M14.2 14H47.8C48.975 14 49.8438 14.5 50.4063 15.5C50.9688 16.5 50.9667 17.5 50.4 18.5L33.6 47.5C33.02 48.5 32.15 49 30.99 49C29.83 49 28.9667 48.5 28.4 47.5L11.6 18.5C11.0334 17.5 11.0313 16.5 11.5938 15.5C12.1563 14.5 13.025 14 14.2 14ZM14.2 17L18.55 24.5H43.45L47.8 17H14.2ZM20.3 27.5L24.35 34.5H37.65L41.7 27.5H20.3ZM26.1 37.5L31 46L35.9 37.5H26.1Z" fill="#D3F9F6"/>
</svg>
