<svg width="63" height="63" viewBox="0 0 63 63" fill="none" xmlns="http://www.w3.org/2000/svg">
<circle cx="31.5" cy="31.5" r="31.5" fill="#2ABFB3"/>
<path d="M47 51H15.6C14.5333 51 13.6917 50.55 13.075 49.65C12.4583 48.75 12.3833 47.8 12.85 46.8L18.2 34.8C18.4667 34.2333 18.8425 33.7917 19.3274 33.475C19.8123 33.1583 20.3532 33 20.95 33H25L28.25 24.9C28.4833 24.3333 28.8513 23.875 29.3538 23.525C29.8564 23.175 30.4218 23 31.05 23H40.75C41.4283 23 42.0312 23.2 42.5587 23.6C43.0862 24 43.4333 24.5333 43.6 25.2L49.9 47.2C50.1667 48.1667 50 49.0417 49.4 49.825C48.8 50.6083 48 51 47 51ZM15.6 48H47L40.75 26H31L27.4 35.05C27.2739 35.3287 27.0847 35.5567 26.8324 35.734C26.5802 35.9113 26.3027 36 26 36H20.95L15.6 48ZM34.15 14.5V10.5C34.15 10.075 34.2946 9.71875 34.5837 9.43125C34.8729 9.14375 35.2313 9 35.6588 9C36.0863 9 36.4417 9.14375 36.725 9.43125C37.0083 9.71875 37.15 10.075 37.15 10.5V14.5C37.15 14.925 37.0054 15.2812 36.7163 15.5687C36.4271 15.8563 36.0687 16 35.6413 16C35.2138 16 34.8583 15.8563 34.575 15.5687C34.2917 15.2812 34.15 14.925 34.15 14.5ZM42.15 16.65L45 13.8C45.3 13.5 45.65 13.3583 46.05 13.375C46.45 13.3917 46.8 13.5367 47.1 13.81C47.4 14.1082 47.55 14.456 47.55 14.8537C47.55 15.2512 47.4 15.6 47.1 15.9L44.25 18.75C43.95 19.0167 43.5983 19.1583 43.195 19.175C42.7917 19.1917 42.4433 19.05 42.15 18.75C41.85 18.45 41.7 18.1 41.7 17.7C41.7 17.3 41.85 16.95 42.15 16.65ZM27.05 18.75L24.2 15.9C23.9 15.6 23.7583 15.25 23.775 14.85C23.7917 14.45 23.9367 14.1 24.21 13.8C24.5082 13.5 24.8561 13.35 25.2536 13.35C25.6512 13.35 26 13.5 26.3 13.8L29.15 16.65C29.4167 16.95 29.5583 17.3017 29.575 17.705C29.5917 18.1083 29.45 18.4567 29.15 18.75C28.85 19.05 28.5 19.2 28.1 19.2C27.7 19.2 27.35 19.05 27.05 18.75Z" fill="#D3F9F6"/>
</svg>
