<svg width="63" height="63" viewBox="0 0 63 63" fill="none" xmlns="http://www.w3.org/2000/svg">
<circle cx="31.5" cy="31.5" r="31.5" fill="#2ABFB3"/>
<path d="M53 50.2074L38.2812 40.4358L34.8967 40.5125L33.9906 36.8535L29.1307 34.0144L29.3589 27.3902L21.7635 23.8189L20.3613 17.4161L13 13.7939V50.2074H53Z" fill="#D3F9F6"/>
<path d="M29.6955 15.6357L25.7892 18.5256L28.9281 22.7515H36.4094V17.4746L29.6955 15.6357Z" fill="#D3F9F6"/>
<path d="M36.5478 27.2959L34.6581 31.315L40.1745 34.1336L40.294 30.3239L36.5478 27.2959Z" fill="#D3F9F6"/>
<path d="M43.9998 38.2109L42.1272 39.8777L44.9133 42.5705C44.9163 42.5745 44.9187 42.5783 44.9216 42.5823L47.0378 39.8777L43.9998 38.2109Z" fill="#D3F9F6"/>
</svg>
