<svg width="63" height="63" viewBox="0 0 63 63" fill="none" xmlns="http://www.w3.org/2000/svg">
<circle cx="31.5" cy="31.5" r="31.5" fill="#2ABFB3"/>
<path d="M31 51.0003C26.5333 51.0003 22.75 49.4503 19.65 46.3503C16.55 43.2503 15 39.467 15 35.0003C15 31.1337 16.1917 27.3837 18.575 23.7503C20.9583 20.117 24.2333 17.017 28.4 14.4503C28.9667 14.0837 29.5417 14.0753 30.125 14.4253C30.7083 14.7753 31 15.3003 31 16.0003V19.6003C31 20.7337 31.3917 21.6837 32.175 22.4503C32.9583 23.217 33.9167 23.6003 35.05 23.6003C35.65 23.6003 36.2083 23.4753 36.725 23.2253C37.2417 22.9753 37.7 22.6003 38.1 22.1003C38.3667 21.8003 38.6667 21.592 39 21.4753C39.3333 21.3587 39.65 21.4003 39.95 21.6003C42.15 23.1003 43.875 25.0337 45.125 27.4003C46.375 29.767 47 32.3003 47 35.0003C47 39.467 45.45 43.2503 42.35 46.3503C39.25 49.4503 35.4667 51.0003 31 51.0003ZM18 35.0003C18 37.1003 18.475 39.0753 19.425 40.9253C20.375 42.7753 21.7 44.317 23.4 45.5503C23.2667 45.1503 23.1667 44.742 23.1 44.3253C23.0333 43.9087 23 43.5003 23 43.1003C23 42.0337 23.2 41.0337 23.6 40.1003C24 39.167 24.5833 38.317 25.35 37.5503L31 32.0003L36.65 37.5503C37.4167 38.317 38 39.167 38.4 40.1003C38.8 41.0337 39 42.0337 39 43.1003C39 43.5003 38.9667 43.9087 38.9 44.3253C38.8333 44.742 38.7333 45.1503 38.6 45.5503C40.3 44.317 41.625 42.7753 42.575 40.9253C43.525 39.0753 44 37.1003 44 35.0003C44 33.2003 43.6167 31.442 42.85 29.7253C42.0833 28.0087 40.9833 26.4337 39.55 25.0003C38.85 25.5003 38.1167 25.892 37.35 26.1753C36.5833 26.4587 35.8167 26.6003 35.05 26.6003C33.0167 26.6003 31.3333 25.9087 30 24.5253C28.6667 23.142 28 21.4003 28 19.3003V18.3003C24.9333 20.5003 22.5 23.1087 20.7 26.1253C18.9 29.142 18 32.1003 18 35.0003ZM31 36.2003L27.45 39.7003C26.9833 40.167 26.625 40.6837 26.375 41.2503C26.125 41.817 26 42.4337 26 43.1003C26 44.467 26.4833 45.6253 27.45 46.5753C28.4167 47.5253 29.6 48.0003 31 48.0003C32.4 48.0003 33.5833 47.5253 34.55 46.5753C35.5167 45.6253 36 44.467 36 43.1003C36 42.4337 35.875 41.817 35.625 41.2503C35.375 40.6837 35.0167 40.167 34.55 39.7003L31 36.2003Z" fill="#D3F9F6"/>
</svg>
