<svg width="63" height="63" viewBox="0 0 63 63" fill="none" xmlns="http://www.w3.org/2000/svg">
<circle cx="31.5" cy="31.5" r="31.5" fill="#2ABFB3"/>
<path d="M25.025 51C24.675 51 24.367 50.9062 24.101 50.7188C23.835 50.5312 23.6513 50.275 23.55 49.95L18.4 32.5H12.5C12.075 32.5 11.7188 32.3554 11.4313 32.0663C11.1437 31.7771 11 31.4187 11 30.9913C11 30.5638 11.1437 30.2083 11.4313 29.925C11.7188 29.6417 12.075 29.5 12.5 29.5H19.5C19.8307 29.5 20.1296 29.5938 20.3967 29.7812C20.6638 29.9688 20.8482 30.225 20.95 30.55L24.75 43.35L31.55 12.2C31.6167 11.8333 31.7875 11.5417 32.0625 11.325C32.3375 11.1083 32.65 11 33 11C33.35 11 33.6625 11.1 33.9375 11.3C34.2125 11.5 34.3833 11.7833 34.45 12.15L39.15 33.3L42.55 22.05C42.652 21.725 42.8368 21.4688 43.1044 21.2812C43.3721 21.0938 43.6716 21 44.003 21C44.3343 21 44.625 21.0833 44.875 21.25C45.125 21.4167 45.3 21.65 45.4 21.95L48.1 29.5H49.5C49.925 29.5 50.2812 29.6446 50.5688 29.9338C50.8563 30.2229 51 30.5813 51 31.0087C51 31.4362 50.8563 31.7917 50.5688 32.075C50.2812 32.3583 49.925 32.5 49.5 32.5H47C46.6717 32.5 46.3813 32.4083 46.1288 32.225C45.8763 32.0417 45.7 31.8 45.6 31.5L44.1 27.35L40.4 39.95C40.3037 40.271 40.1231 40.5346 39.8584 40.7408C39.5935 40.9469 39.2926 41.0333 38.9556 41C38.6185 40.9667 38.3167 40.85 38.05 40.65C37.7833 40.45 37.6167 40.1833 37.55 39.85L33 19.75L26.45 49.85C26.375 50.1962 26.2063 50.4683 25.9438 50.6661C25.6813 50.864 25.375 50.9753 25.025 51Z" fill="#D3F9F6"/>
</svg>
