<svg width="63" height="63" viewBox="0 0 63 63" fill="none" xmlns="http://www.w3.org/2000/svg">
<circle cx="31.5" cy="31.5" r="31.5" fill="#2ABFB3"/>
<path d="M24.2 47.9999C25.4667 47.9999 26.475 47.6665 27.225 46.9999C27.975 46.3332 29.2333 45.9999 31 45.9999C32.7667 45.9999 34.0333 46.3332 34.8 46.9999C35.5667 47.6665 36.5667 47.9999 37.8 47.9999C39.0667 47.9999 40.075 47.5832 40.825 46.7499C41.575 45.9165 42.8333 45.4999 44.6 45.4999C45.9333 45.4999 46.9333 45.7499 47.6 46.2499C48.2667 46.7499 48.9333 47.1832 49.6 47.5499C49.9667 47.7499 50.2917 48.0165 50.575 48.3499C50.8583 48.6832 51 49.0665 51 49.4999C51 49.9332 50.85 50.2832 50.55 50.5499C50.25 50.8165 49.9167 50.8832 49.55 50.7499C48.5833 50.4499 47.7417 49.9999 47.025 49.3999C46.3083 48.7999 45.5 48.4999 44.6 48.4999C43.5 48.4999 42.5333 48.9165 41.7 49.7499C40.8667 50.5832 39.5667 50.9999 37.8 50.9999C36.0333 50.9999 34.7333 50.6665 33.9 49.9999C33.0667 49.3332 32.1 48.9999 31 48.9999C29.9 48.9999 28.9333 49.3332 28.1 49.9999C27.2667 50.6665 25.9667 50.9999 24.2 50.9999C22.4333 50.9999 21.1333 50.6665 20.3 49.9999C19.4667 49.3332 18.5 48.9999 17.4 48.9999C16.5333 48.9999 15.7417 49.2332 15.025 49.6999C14.3083 50.1665 13.4833 50.5332 12.55 50.7999C12.15 50.8999 11.7917 50.8165 11.475 50.5499C11.1583 50.2832 11 49.9332 11 49.4999C11 49.0665 11.1417 48.6832 11.425 48.3499C11.7083 48.0165 12.05 47.7665 12.45 47.5999C13.1167 47.2999 13.7833 46.9582 14.45 46.5749C15.1167 46.1915 16.1 45.9999 17.4 45.9999C19.1667 45.9999 20.425 46.3332 21.175 46.9999C21.925 47.6665 22.9333 47.9999 24.2 47.9999ZM24.2 41.4999C22.4333 41.4999 21.1333 41.1665 20.3 40.4999C19.4667 39.8332 18.5 39.4999 17.4 39.4999C16.5333 39.4999 15.7417 39.7332 15.025 40.1999C14.3083 40.6665 13.4833 41.0332 12.55 41.2999C12.15 41.3999 11.7917 41.3165 11.475 41.0499C11.1583 40.7832 11 40.4332 11 39.9999C11 39.5665 11.1417 39.1832 11.425 38.8499C11.7083 38.5165 12.05 38.2665 12.45 38.0999C13.1167 37.7999 13.7833 37.4582 14.45 37.0749C15.1167 36.6915 16.1 36.4999 17.4 36.4999C17.7667 36.4999 18.1417 36.5249 18.525 36.5749C18.9083 36.6249 19.25 36.6999 19.55 36.7999L17 27.5499L14.85 30.2499C14.5833 30.5832 14.25 30.7665 13.85 30.7999C13.45 30.8332 13.0833 30.7165 12.75 30.4499C12.4167 30.1832 12.225 29.8415 12.175 29.4249C12.125 29.0082 12.2333 28.6332 12.5 28.2999L25.2 12.6999C25.6 12.1999 26.1167 11.8665 26.75 11.6999C27.3833 11.5332 28 11.5665 28.6 11.7999L47.4 18.9499C47.8 19.1165 48.0833 19.3832 48.25 19.7499C48.4167 20.1165 48.4167 20.4999 48.25 20.8999C48.0833 21.2665 47.8083 21.5415 47.425 21.7249C47.0417 21.9082 46.6667 21.9165 46.3 21.7499L43.1 20.5499L47.4 36.5999C47.7667 36.7999 48.1333 37.0332 48.5 37.2999C48.8667 37.5665 49.2333 37.7999 49.6 37.9999C49.9667 38.2332 50.2917 38.5165 50.575 38.8499C50.8583 39.1832 51 39.5665 51 39.9999C51 40.4332 50.8333 40.7832 50.5 41.0499C50.1667 41.3165 49.8167 41.3832 49.45 41.2499C48.5167 40.9165 47.6917 40.4582 46.975 39.8749C46.2583 39.2915 45.4667 38.9999 44.6 38.9999C43.5 38.9999 42.5333 39.4165 41.7 40.2499C40.8667 41.0832 39.5667 41.4999 37.8 41.4999C36.0333 41.4999 34.7333 41.1665 33.9 40.4999C33.0667 39.8332 32.1 39.4999 31 39.4999C29.9 39.4999 28.9333 39.8332 28.1 40.4999C27.2667 41.1665 25.9667 41.4999 24.2 41.4999ZM24.2 38.4999C25.2333 38.4999 26.1583 38.2082 26.975 37.6249C27.7917 37.0415 28.7333 36.6832 29.8 36.5499L28.15 30.4999C28.0833 30.2999 28.1083 30.1082 28.225 29.9249C28.3417 29.7415 28.5 29.6165 28.7 29.5499L34 28.1499C34.2 28.0832 34.3917 28.1082 34.575 28.2249C34.7583 28.3415 34.8833 28.4999 34.95 28.6999L37.5 38.4999C38.7667 38.6332 39.8083 38.2665 40.625 37.3999C41.4417 36.5332 42.6 36.0665 44.1 35.9999L39.6 19.1999L27.55 14.5499L19.35 24.6499L23.05 38.3499C23.2833 38.4165 23.4833 38.4582 23.65 38.4749C23.8167 38.4915 24 38.4999 24.2 38.4999Z" fill="#D3F9F6"/>
</svg>
