<svg width="187" height="187" viewBox="0 0 187 187" fill="none" xmlns="http://www.w3.org/2000/svg">
<path d="M99.9167 0.3125C95.8091 0.3125 92.4792 3.64238 92.4792 7.75C92.4792 11.8576 95.8091 15.1875 99.9167 15.1875C109.358 15.1875 118.707 17.0471 127.43 20.6602C136.153 24.2733 144.079 29.5692 150.755 36.2453C157.431 42.9214 162.727 50.8472 166.34 59.57C169.953 68.2928 171.812 77.6418 171.812 87.0833C171.812 91.1909 175.142 94.5208 179.25 94.5208C183.358 94.5208 186.688 91.1909 186.688 87.0833C186.688 75.6884 184.443 64.4051 180.082 53.8776C175.722 43.35 169.33 33.7845 161.273 25.7271C153.215 17.6697 143.65 11.2782 133.122 6.91754C122.595 2.55689 111.312 0.3125 99.9167 0.3125Z" fill="#28303F"/>
<path d="M179.25 166.417V150.094C179.25 141.985 174.312 134.692 166.783 131.68L146.611 123.611C137.033 119.78 126.118 123.93 121.505 133.156L119.75 136.667C119.75 136.667 94.9583 131.708 75.125 111.875C55.2917 92.0417 50.3333 67.25 50.3333 67.25L53.844 65.4947C63.0701 60.8816 67.22 49.9666 63.389 40.3893L55.3203 20.2174C52.3083 12.6875 45.0155 7.75 36.9055 7.75H20.5833C9.62969 7.75 0.75 16.6297 0.75 27.5833C0.75 115.213 71.7875 186.25 159.417 186.25C170.37 186.25 179.25 177.37 179.25 166.417Z" fill="#28303F"/>
<path d="M92.4792 47.4167C92.4792 43.3091 95.8091 39.9792 99.9167 39.9792C106.102 39.9792 112.228 41.1976 117.943 43.5648C123.658 45.932 128.85 49.4016 133.224 53.7757C137.598 58.1497 141.068 63.3424 143.435 69.0574C145.802 74.7723 147.021 80.8975 147.021 87.0833C147.021 91.191 143.691 94.5208 139.583 94.5208C135.476 94.5208 132.146 91.191 132.146 87.0833C132.146 82.8509 131.312 78.66 129.693 74.7498C128.073 70.8395 125.699 67.2866 122.706 64.2939C119.713 61.3011 116.16 58.9271 112.25 57.3075C108.34 55.6878 104.149 54.8542 99.9167 54.8542C95.8091 54.8542 92.4792 51.5243 92.4792 47.4167Z" fill="#28303F"/>
</svg>
