<svg width="204" height="82" viewBox="0 0 204 82" fill="none" xmlns="http://www.w3.org/2000/svg">
<path d="M6.19443 66.7309L16.3219 76.3889C21.3539 81.1876 28.8006 82.4393 35.1249 79.5494L52.0673 71.8076C60.1112 68.1319 63.9949 58.9039 60.9999 50.5824L59.8603 47.416C59.8603 47.416 77.6062 34.9673 101.648 34.3968C125.69 33.8263 144.006 45.4192 144.006 45.4192L143.018 48.6361C140.421 57.0903 144.738 66.1237 152.947 69.4137L170.238 76.3431C176.692 78.9298 184.071 77.3263 188.87 72.2943L198.528 62.1668C205.009 55.3703 204.754 44.6065 197.957 38.1251C143.585 -13.7259 57.4749 -11.6824 5.62391 42.6892C-0.857465 49.4857 -0.602037 60.2495 6.19443 66.7309Z" fill="#28303F"/>
</svg>
