<svg width="366" height="379" viewBox="0 0 366 379" fill="none" xmlns="http://www.w3.org/2000/svg">
<path d="M178.267 5.59993C168.933 19.3333 167.733 32.9333 174.533 44.6666C180 53.8666 180.667 53.3333 180.667 39.7333C180.667 27.7333 182 22.2666 184.267 24.5333C184.8 25.0666 185.6 31.1999 185.733 38.1333C186.267 52.3999 187.467 53.3333 192.4 43.4666C197.333 33.5999 197.733 24.5333 193.6 15.4666C189.6 6.93326 185.067 -6.86646e-05 183.333 -6.86646e-05C182.667 -6.86646e-05 180.4 2.53326 178.267 5.59993Z" fill="#800080"/>
<path d="M128.267 35.5998C126.8 36.9332 127.2 46.1332 128.8 50.2665C130.4 54.7998 137.867 62.6665 140.267 62.6665C141.467 62.6665 141.067 60.6665 138.533 55.8665C136.667 52.1332 135.6 48.6665 136 48.2665C136.8 47.4665 138.4 48.9332 145.067 57.5998C147.467 60.6665 147.467 60.6665 146.8 53.9998C145.867 46.1332 142.933 41.7332 135.867 37.7332C130.133 34.3998 129.467 34.2665 128.267 35.5998Z" fill="#2ABFB3"/>
<path d="M229.2 38.3996C223.2 42.7996 219.333 49.5996 219.333 55.9996C219.333 61.1996 221.2 60.2663 224.667 53.1996C226.133 50.3996 228 47.9996 228.667 47.9996C230.8 47.9996 230.133 52.3996 227.2 57.1996C223.867 62.6663 224.8 63.9996 229.6 60.5329C236.4 55.4663 238.667 51.0663 238.667 42.9329C238.667 33.7329 236.933 32.9329 229.2 38.3996Z" fill="#2ABFB3"/>
<path d="M73.6 64.2666C71.4666 65.8666 71.6 66.5333 74.5333 72.6666C78.6666 81.4666 83.8666 87.4666 90.2666 90.7999C95.7333 93.5999 114 95.9999 114 93.8666C114 93.1999 109.467 89.9999 103.867 86.6666C84.5333 75.1999 85.0666 70.7999 104.667 80.9333C112 84.6666 118 87.4666 118 87.1999C118 84.9333 112.933 77.0666 108.267 72.2666C104.4 68.3999 100.533 65.9999 96.1333 64.6666C88 62.2666 76.6666 62.1333 73.6 64.2666Z" fill="#800080"/>
<path d="M271.067 64.133C264.8 65.9996 254.667 74.7996 251.2 81.4663C249.733 84.3996 248.933 86.6663 249.333 86.6663C249.733 86.6663 254.8 84.2663 260.667 81.333C278.533 72.3996 280.8 74.6663 264.667 85.333C258.8 89.1996 253.6 92.933 253.067 93.733C251.867 95.733 268.533 93.8663 275.067 91.1996C278.133 89.9996 282.533 86.933 284.8 84.2663C289.467 78.933 296.133 65.5996 294.667 64.2663C293.2 62.7996 276.267 62.6663 271.067 64.133Z" fill="#800080"/>
<path d="M178.533 81.333C170.933 84.3997 167.467 96.133 172.4 102.133C181.067 112.8 196.667 107.2 196.667 93.4663C196.667 85.4663 186 78.2663 178.533 81.333Z" fill="#800080"/>
<path d="M138.4 102.667C143.333 107.2 149.733 114.4 152.533 118.533C164.533 136.133 175.067 161.867 181.333 188.667C182.133 192.133 182.933 190.4 186.133 177.333C195.2 140.8 207.733 119.733 233.333 98.1334L237.333 94.8001L233.2 94.6668C226.667 94.6668 212.533 99.4668 205.467 104.267C201.867 106.533 195.333 111.733 191.067 115.733L183.2 123.067L178.267 119.067C163.2 107.067 144.667 97.0668 134.4 95.2001L129.333 94.4001L138.4 102.667Z" fill="#800080"/>
<path d="M80.9333 124.133C73.9999 127.6 73.9999 130.133 81.3333 134.266C87.7333 137.866 94.3999 138.133 100.667 134.933C106.133 132.266 107.067 129.6 103.6 125.333C99.8666 120.8 88.6666 120.133 80.9333 124.133ZM102.533 128.8C103.2 130.4 102.4 130.8 98.3999 130.4C91.9999 129.866 90.7999 126.666 97.0666 126.666C99.9999 126.666 102 127.466 102.533 128.8Z" fill="#2ABFB3"/>
<path d="M265.733 123.466C260 126.533 261.067 128.266 268 127.2C273.067 126.533 274 126.666 274 128.533C274 130.666 271.467 131.2 265.067 130.666C260.4 130.4 261.467 133.2 266.667 135.466C273.2 138.133 279.2 137.733 285.333 134.266C292.667 130.133 292.8 127.6 285.6 124.133C278.933 120.933 270.933 120.533 265.733 123.466Z" fill="#2ABFB3"/>
<path d="M97.3333 165.2C87.2 167.734 80.4 173.734 74.6666 185.2C72.1333 190.134 71.6 192.8 72.5333 193.734C73.3333 194.534 78.6666 195.2 84.2666 195.2C95.8666 195.2 102.4 192.667 108.8 185.734C112.4 182 118 173.467 118 171.734C118 171.2 112.933 173.6 106.667 176.8C100.267 180.267 94.1333 182.667 92.4 182.4C89.7333 182 90.4 181.2 97.3333 176.267C101.733 173.067 107.733 169.067 110.667 167.334L116 164.134H108.667C104.667 164.267 99.6 164.667 97.3333 165.2Z" fill="#800080"/>
<path d="M252.667 164.4C252.667 164.8 257.733 168.534 264 172.667C270.267 176.934 275.733 180.8 276 181.467C278 184.534 272.933 183.334 262.267 178C255.733 174.667 249.867 172 249.467 172C248.933 172 249.733 174.267 251.2 177.067C257.6 189.6 272.4 197.2 287.2 195.467C291.2 194.934 294.8 194.267 295.2 193.867C296.267 192.934 289.333 179.734 285.333 174.934C280 168.534 272.133 165.067 261.733 164.267C256.667 163.867 252.667 164 252.667 164.4Z" fill="#800080"/>
<path d="M224.667 195.866C224.667 196.533 225.867 199.333 227.467 201.866C228.933 204.399 230 207.866 229.733 209.599C229.2 212.533 229.067 212.399 226.533 208.133C225.2 205.733 222.933 202.399 221.733 200.799C219.467 197.999 219.467 197.999 219.333 202.399C219.333 208.799 222.933 215.599 228.533 219.466C237.2 225.333 240.267 223.199 238.667 212.533C238.133 208.666 236.4 204.933 233.733 201.866C229.2 196.799 224.667 193.733 224.667 195.866Z" fill="#2ABFB3"/>
<path d="M134.8 199.333C130.133 203.6 127.333 210.533 127.333 217.333C127.333 223.6 128.8 224 136.8 219.867C142.667 216.933 147.2 209.2 147.333 202.267C147.333 197.067 145.733 197.733 142 204.667C140.133 208 137.867 210.667 136.933 210.667C135.733 210.667 135.333 209.867 135.867 208.533C136.267 207.333 136.667 206 136.667 205.333C136.667 204.667 138.267 202.4 140.133 200.133C143.333 196.4 143.333 196 140.933 196C139.6 196 136.8 197.467 134.8 199.333Z" fill="#2ABFB3"/>
<path d="M186 218.4C186 231.066 184.133 238.133 181.867 234.533C181.2 233.466 180.667 227.066 180.667 220.266C180.667 206.133 179.333 205.066 174.267 214.8C167.733 227.466 169.467 242.4 178.8 253.2C182.933 257.866 183.067 257.866 185.6 255.6C190 251.733 195.467 240.533 196.133 233.733C196.933 226.666 193.333 214.666 188.667 209.066C186.133 206 186.133 206 186 218.4Z" fill="#800080"/>
<path d="M81.6 300.933C81.0666 301.333 80.6666 314.933 80.6666 330.933V360H85.3333H90V330V300H86.2666C84.1333 300 82 300.4 81.6 300.933Z" fill="#800080"/>
<path d="M319.333 302.666C317.867 304.133 316.267 307.733 315.867 310.8C315.333 313.733 313.733 317.333 312.267 318.666C309.467 321.466 310 325.333 313.2 325.333C314.933 325.333 315.333 328.266 315.6 342.266L316 359.333H320.667H325.333L325.733 342.4C326 326.133 326.133 325.466 329.067 325.066C333.6 324.4 333.733 319.066 329.333 317.333C327.467 316.666 325.6 315.066 325.2 314C324.133 311.333 326.933 308 330.133 308C332.8 308 336 303.333 334.667 301.333C333.067 298.8 322.133 299.866 319.333 302.666Z" fill="#2ABFB3"/>
<path d="M252 304C248.133 305.467 243.867 310.8 242.8 314.933C241.2 321.733 243.467 326.8 251.6 334.8C259.6 342.8 261.333 347.333 257.333 350.667C255.467 352.267 252.667 352 245.067 349.867C242.4 349.067 242 349.467 242 353.067C242 358.4 244.933 360 254.4 360C262.267 360 265.867 357.6 268.667 350.133C271.2 343.2 269.067 337.333 260.533 329.067C255.067 323.867 252.667 320.533 252.667 318.267C252.667 313.6 255.867 311.467 261.333 312.4C265.067 313.067 266.267 312.667 267.333 310.667C269.467 306.8 268.933 305.733 264.533 304.133C259.6 302.4 255.733 302.4 252 304Z" fill="#2ABFB3"/>
<path d="M0.666626 330.666C0.666626 345.333 0.666626 357.733 0.666626 358.266C0.666626 358.933 2.66663 359.333 5.06663 359.333H9.33329L9.73329 346.933L10.1333 334.666H16.6666C21.0666 334.666 23.3333 335.2 23.4666 336.266C23.6 337.2 23.7333 342.8 23.8666 348.666L24 359.333L28.5333 359.733C31.0666 360 33.4666 359.6 33.8666 358.8C34.4 358 34.9333 345.333 35.0666 330.666L35.4666 304H29.3333H23.3333V314.533C23.3333 326.133 22.9333 326.666 14.5333 326.666H9.99996V315.333V304H5.33329H0.666626V330.666Z" fill="#800080"/>
<path d="M147.867 307.6C147.467 309.734 144.4 321.867 141.2 334.8C138 347.6 135.333 358.667 135.333 359.2C135.333 359.734 137.6 360 140.267 359.734C145.067 359.334 145.2 359.067 146.667 352.667L148 346L154.533 345.6C162.133 345.067 163.467 346.134 165.333 353.734C166.667 358.934 167.067 359.334 171.733 359.734C174.4 360 176.667 359.867 176.667 359.6C176.667 358.8 164.8 309.734 163.867 306.267C163.333 304.534 161.6 304 156 304C149.2 304 148.667 304.267 147.867 307.6ZM158 320.667C158.933 324 159.733 328.934 159.867 331.734C160 336.534 159.867 336.667 155.333 336.667C150.133 336.667 150.267 337.467 152.933 322.934C153.733 318.4 154.8 314.667 155.333 314.667C155.867 314.667 157.067 317.334 158 320.667Z" fill="#800080"/>
<path d="M53.1999 317.333C46.3999 320.133 41.0666 333.733 42.7999 343.866C44.3999 353.2 52.2666 361.333 59.7333 361.333C63.9999 361.333 69.7333 358.4 71.0666 355.333C72.9333 351.2 72.2666 350.8 65.0666 352.4C59.1999 353.6 58.6666 353.466 55.5999 350C53.9999 348 52.6666 345.066 52.9333 343.6C53.3333 341.066 54.2666 340.8 62.9333 340.666C68.1333 340.666 72.9333 340.266 73.4666 339.733C73.9999 339.2 73.7333 335.2 72.9333 331.066C70.5333 318.933 62.6666 313.466 53.1999 317.333ZM61.7333 325.6C64.1333 328 63.7333 332.933 60.9333 333.6C57.8666 334.533 52.6666 332.533 52.6666 330.533C52.6666 328.4 56.6666 324 58.6666 324C59.4666 324 60.7999 324.666 61.7333 325.6Z" fill="#800080"/>
<path d="M101.333 317.6C100.933 318.533 100.533 332.533 100.267 348.666L99.9999 378L105.067 378.4L110 378.8V367.466V356.133L114.533 358.8C118.267 360.933 119.6 361.2 122.533 359.866C132.667 355.2 134.667 329.066 125.6 318.933C122.133 315.2 118.133 315.2 113.467 318.8C110.267 321.333 109.6 321.466 107.6 319.733C103.733 316.4 102 315.733 101.333 317.6ZM119.867 327.466C121.2 330.933 120.8 346.666 119.333 349.466C117.6 352.533 114.933 352.666 112.133 349.866C109.467 347.333 109.067 329.466 111.6 326.933C113.867 324.666 118.933 324.933 119.867 327.466Z" fill="#800080"/>
<path d="M182.533 317.733C182.267 318.666 182.133 328.399 182.267 339.333L182.667 359.333H186.667H190.667L191.467 343.733C192 335.199 192.8 327.599 193.2 326.799C194.667 324.533 201.6 325.066 202.533 327.466C202.933 328.666 203.333 336.399 203.333 344.799V359.999H207.867H212.267L212.933 344.666C213.733 328.399 214.8 325.333 220.133 325.333C224.133 325.333 224.533 327.333 225.067 345.333L225.333 359.333L229.733 359.733L234 360.133L234.267 348.399C234.8 325.066 233.6 319.466 227.733 317.199C223.333 315.599 218.8 316.533 215.333 319.999C212 323.333 212.133 323.333 208.133 319.333C204.133 315.333 200.8 315.066 196.267 318.666C194.4 320.133 192.267 321.333 191.467 321.333C190.667 321.333 189.467 320.133 188.667 318.666C187.067 315.599 183.6 315.066 182.533 317.733Z" fill="#800080"/>
<path d="M282.4 318C277.733 320 277.333 320.8 279.2 323.867C280 325.067 281.867 325.334 285.6 324.667C289.733 324 291.467 324.4 293.2 326.134C296.8 329.6 295.333 332.4 289.333 333.6C279.867 335.6 276.933 337.334 275.2 342.267C273.6 347.2 274.4 352.267 277.467 356.934C280 360.934 288.533 361.2 292 357.334C295.067 354 296.267 354 297.333 357.467C298 359.334 299.2 360 301.067 359.734C303.867 359.334 304 358.534 304.4 344.667C304.667 336.534 304.133 327.734 303.333 325.067C300.933 316.8 291.867 313.867 282.4 318ZM294.8 342C295.867 344.667 292.933 351.6 290.4 352.534C285.333 354.534 282.133 344.267 287.067 341.467C290.4 339.467 294 339.734 294.8 342Z" fill="#2ABFB3"/>
<path d="M344.4 318.399C338.933 321.733 336.267 328.399 336.267 338.799C336.267 349.599 339.067 355.199 346.4 359.066C350.8 361.333 352.267 361.466 356.8 360.133C361.6 358.666 367.333 352.933 365.733 351.199C365.333 350.799 362.133 351.333 358.667 352.133C352.4 353.733 352.133 353.599 349.067 349.999C347.333 347.999 346 345.066 346.267 343.466C346.667 340.933 347.333 340.666 353.6 341.066C364.133 341.866 366 340.799 366 334.533C366 319.866 355.067 311.733 344.4 318.399ZM355.333 326.533C357.867 331.466 357.067 333.333 352 333.333C346.667 333.333 345.067 331.066 347.333 326.799C349.2 323.333 353.467 323.199 355.333 326.533Z" fill="#2ABFB3"/>
</svg>
