<svg width="113" height="46" viewBox="0 0 113 46" fill="none" xmlns="http://www.w3.org/2000/svg">
<path d="M18.2004 1.92328C16.6003 4.27771 16.3946 6.60928 17.5604 8.62083C18.4975 10.1981 18.6118 10.1066 18.6118 7.77506C18.6118 5.71779 18.8404 4.78059 19.229 5.16919C19.3205 5.26062 19.4576 6.31212 19.4805 7.50076C19.5719 9.94662 19.7776 10.1066 20.6234 8.4151C21.4692 6.72357 21.5377 5.16919 20.8291 3.61481C20.1434 2.15187 19.3662 0.963223 19.069 0.963223C18.9547 0.963223 18.5661 1.39753 18.2004 1.92328Z" fill="#800080"/>
<path d="M9.62849 7.06651C9.37704 7.29509 9.44562 8.87233 9.71992 9.58094C9.99422 10.3581 11.2743 11.7068 11.6858 11.7068C11.8915 11.7068 11.8229 11.3639 11.3886 10.541C11.0686 9.90096 10.8857 9.30664 10.9543 9.23807C11.0914 9.10092 11.3657 9.35236 12.5087 10.8382C12.9201 11.3639 12.9201 11.3639 12.8058 10.221C12.6458 8.87233 12.1429 8.118 10.9314 7.43224C9.94851 6.86078 9.83421 6.83792 9.62849 7.06651Z" fill="#2ABFB3"/>
<path d="M26.9324 7.54655C25.9037 8.30088 25.2408 9.46666 25.2408 10.5639C25.2408 11.4554 25.5609 11.2953 26.1552 10.0838C26.4066 9.60381 26.7266 9.19236 26.8409 9.19236C27.2067 9.19236 27.0924 9.94669 26.5895 10.7696C26.018 11.7068 26.178 11.9354 27.001 11.3411C28.1667 10.4724 28.5553 9.7181 28.5553 8.32374C28.5553 6.7465 28.2582 6.60935 26.9324 7.54655Z" fill="#2ABFB3"/>
<path d="M0.256493 11.9812C-0.109243 12.2555 -0.0863849 12.3698 0.416502 13.4213C1.12512 14.93 2.0166 15.9586 3.11381 16.5301C4.05101 17.0101 7.18262 17.4216 7.18262 17.0558C7.18262 16.9415 6.40543 16.3929 5.44538 15.8215C2.13089 13.8556 2.22233 13.1013 5.58253 14.8385C6.83975 15.4786 7.86838 15.9586 7.86838 15.9129C7.86838 15.5243 6.99975 14.1756 6.19971 13.3527C5.53681 12.6898 4.87391 12.2784 4.11958 12.0498C2.72521 11.6383 0.782239 11.6155 0.256493 11.9812Z" fill="#800080"/>
<path d="M34.11 11.9582C33.0356 12.2782 31.2984 13.7868 30.7041 14.9298C30.4526 15.4327 30.3155 15.8212 30.384 15.8212C30.4526 15.8212 31.3212 15.4098 32.327 14.9069C35.3901 13.3754 35.7787 13.764 33.0128 15.5927C32.007 16.2556 31.1155 16.8956 31.0241 17.0327C30.8184 17.3756 33.6757 17.0556 34.7957 16.5984C35.3215 16.3927 36.0758 15.867 36.4644 15.4098C37.2645 14.4955 38.4074 12.2096 38.1559 11.981C37.9045 11.7296 35.0015 11.7067 34.11 11.9582Z" fill="#800080"/>
<path d="M18.2461 14.907C16.9432 15.4328 16.3489 17.4443 17.1947 18.4729C18.6805 20.3016 21.3549 19.3416 21.3549 16.9871C21.3549 15.6156 19.5262 14.3813 18.2461 14.907Z" fill="#800080"/>
<path d="M11.3657 18.5641C12.2115 19.3413 13.3087 20.5757 13.7887 21.2843C15.846 24.3016 17.6518 28.7133 18.7262 33.3079C18.8633 33.9022 19.0005 33.6051 19.5491 31.3649C21.1034 25.1017 23.2521 21.49 27.641 17.787L28.3267 17.2155L27.6181 17.1926C26.4981 17.1926 24.0751 18.0155 22.8636 18.8384C22.2464 19.227 21.1263 20.1185 20.3948 20.8043L19.0462 22.0615L18.2004 21.3757C15.6174 19.3185 12.4401 17.6041 10.68 17.2841L9.81134 17.1469L11.3657 18.5641Z" fill="#800080"/>
<path d="M1.51371 22.2443C0.325063 22.8386 0.325063 23.2729 1.58228 23.9815C2.67949 24.5987 3.82242 24.6444 4.89677 24.0958C5.83397 23.6387 5.99398 23.1815 5.39965 22.45C4.75962 21.6728 2.8395 21.5585 1.51371 22.2443ZM5.21679 23.0443C5.33108 23.3186 5.19393 23.3872 4.50817 23.3186C3.41096 23.2272 3.20524 22.6786 4.27959 22.6786C4.78247 22.6786 5.12535 22.8157 5.21679 23.0443Z" fill="#2ABFB3"/>
<path d="M33.1956 22.1301C32.2126 22.6558 32.3955 22.953 33.5841 22.7701C34.4528 22.6558 34.6128 22.6787 34.6128 22.9987C34.6128 23.3644 34.1785 23.4558 33.0813 23.3644C32.2812 23.3187 32.4641 23.7987 33.3556 24.1873C34.4756 24.6445 35.5043 24.5759 36.5558 23.9816C37.813 23.273 37.8358 22.8387 36.6015 22.2443C35.4585 21.6957 34.087 21.6272 33.1956 22.1301Z" fill="#2ABFB3"/>
<path d="M4.32528 29.2852C2.58803 29.7195 1.42224 30.7481 0.439328 32.714C0.00501578 33.5597 -0.0864183 34.0169 0.0735914 34.1769C0.210742 34.3141 1.12508 34.4283 2.08514 34.4283C4.07383 34.4283 5.1939 33.994 6.29111 32.8054C6.90829 32.1654 7.86835 30.7024 7.86835 30.4052C7.86835 30.3138 6.99972 30.7253 5.92537 31.2739C4.82816 31.8682 3.77667 32.2796 3.47951 32.2339C3.02234 32.1654 3.13663 32.0282 4.32528 31.1824C5.07961 30.6338 6.10824 29.9481 6.61113 29.6509L7.52547 29.1023H6.26825C5.58249 29.1252 4.71387 29.1937 4.32528 29.2852Z" fill="#800080"/>
<path d="M30.9555 29.1479C30.9555 29.2165 31.8241 29.8566 32.8985 30.5652C33.9728 31.2966 34.91 31.9595 34.9557 32.0738C35.2986 32.5996 34.43 32.3939 32.6013 31.4795C31.4813 30.908 30.4755 30.4509 30.4069 30.4509C30.3155 30.4509 30.4526 30.8395 30.7041 31.3195C31.8013 33.4682 34.3386 34.7711 36.8759 34.474C37.5616 34.3825 38.1788 34.2682 38.2474 34.1997C38.4302 34.0397 37.2416 31.7767 36.5558 30.9538C35.6415 29.8566 34.2928 29.2622 32.5099 29.1251C31.6413 29.0565 30.9555 29.0794 30.9555 29.1479Z" fill="#800080"/>
<path d="M26.1552 34.5421C26.1552 34.6564 26.3609 35.1365 26.6352 35.5708C26.8867 36.0051 27.0695 36.5994 27.0238 36.8966C26.9324 37.3994 26.9095 37.3766 26.4752 36.6451C26.2466 36.2337 25.858 35.6622 25.6523 35.3879C25.2637 34.9079 25.2637 34.9079 25.2408 35.6622C25.2408 36.7594 25.858 37.9252 26.8181 38.5881C28.3039 39.5939 28.8296 39.2281 28.5553 37.3994C28.4639 36.7366 28.1667 36.0965 27.7096 35.5708C26.9324 34.7021 26.1552 34.1764 26.1552 34.5421Z" fill="#2ABFB3"/>
<path d="M10.7485 35.1368C9.94847 35.8683 9.46844 37.0569 9.46844 38.2227C9.46844 39.297 9.71989 39.3656 11.0914 38.657C12.0972 38.1541 12.8744 36.8283 12.8972 35.6397C12.8972 34.7482 12.6229 34.8625 11.9829 36.0511C11.6629 36.6226 11.2743 37.0798 11.1143 37.0798C10.9085 37.0798 10.84 36.9426 10.9314 36.714C11 36.5083 11.0685 36.2797 11.0685 36.1654C11.0685 36.0511 11.3428 35.6625 11.6629 35.2739C12.2115 34.6339 12.2115 34.5653 11.8 34.5653C11.5714 34.5653 11.0914 34.8168 10.7485 35.1368Z" fill="#2ABFB3"/>
<path d="M19.5262 38.4054C19.5262 40.577 19.2062 41.7885 18.8176 41.1713C18.7033 40.9885 18.6119 39.8913 18.6119 38.7255C18.6119 36.3025 18.3833 36.1196 17.5146 37.7883C16.3946 39.9598 16.6917 42.52 18.2918 44.3715C19.0004 45.1716 19.0233 45.1716 19.4576 44.783C20.2119 44.1201 21.1491 42.2 21.2634 41.0342C21.4006 39.8227 20.7834 37.7654 19.9834 36.8054C19.5491 36.2796 19.5491 36.2796 19.5262 38.4054Z" fill="#800080"/>
<path d="M59.448 15.7663C59.3475 15.8416 59.2722 18.4024 59.2722 21.4151V26.8882H60.1509H61.0296V21.2394V15.5906H60.3267C59.925 15.5906 59.5233 15.6659 59.448 15.7663Z" fill="#800080"/>
<path d="M104.212 16.0928C103.935 16.369 103.634 17.0469 103.559 17.6243C103.458 18.1766 103.157 18.8545 102.881 19.1055C102.354 19.6328 102.454 20.3608 103.057 20.3608C103.383 20.3608 103.458 20.9132 103.509 23.5493L103.584 26.7628H104.463H105.341L105.417 23.5744C105.467 20.5115 105.492 20.3859 106.044 20.3106C106.898 20.1851 106.923 19.1809 106.095 18.8545C105.743 18.729 105.392 18.4277 105.316 18.2268C105.115 17.7247 105.643 17.0971 106.245 17.0971C106.747 17.0971 107.35 16.2184 107.099 15.8418C106.797 15.3648 104.739 15.5656 104.212 16.0928Z" fill="#2ABFB3"/>
<path d="M91.5332 16.3437C90.8051 16.6199 90.0017 17.6241 89.8009 18.4024C89.4996 19.6828 89.9264 20.6368 91.4579 22.1432C92.9642 23.6495 93.2906 24.5031 92.5374 25.1308C92.186 25.432 91.6587 25.3818 90.2277 24.9801C89.7256 24.8295 89.6503 24.9048 89.6503 25.5827C89.6503 26.5869 90.2026 26.8882 91.9851 26.8882C93.4664 26.8882 94.1442 26.4363 94.6714 25.0304C95.1484 23.7249 94.7467 22.6202 93.14 21.0636C92.1106 20.0845 91.6587 19.4569 91.6587 19.0301C91.6587 18.1514 92.2613 17.7497 93.2906 17.9254C93.9936 18.0509 94.2195 17.9756 94.4204 17.599C94.8221 16.871 94.7216 16.6701 93.8932 16.3688C92.9642 16.0425 92.2362 16.0425 91.5332 16.3437Z" fill="#2ABFB3"/>
<path d="M44.2087 21.3652C44.2087 24.1268 44.2087 26.4617 44.2087 26.5621C44.2087 26.6876 44.5853 26.763 45.0372 26.763H45.8406L45.9159 24.4281L45.9913 22.1184H47.2214C48.0499 22.1184 48.4767 22.2188 48.5018 22.4196C48.5269 22.5954 48.552 23.6498 48.5772 24.7545L48.6023 26.763L49.4559 26.8383C49.9329 26.8885 50.3848 26.8132 50.4601 26.6625C50.5605 26.5119 50.6609 24.1268 50.686 21.3652L50.7614 16.344H49.6065H48.4767V18.3274C48.4767 20.5116 48.4014 20.612 46.8197 20.612H45.9661V18.478V16.344H45.0874H44.2087V21.3652Z" fill="#800080"/>
<path d="M71.9256 17.0219C71.8502 17.4235 71.2728 19.7082 70.6703 22.1434C70.0677 24.5536 69.5656 26.6374 69.5656 26.7378C69.5656 26.8382 69.9924 26.8884 70.4945 26.8382C71.3983 26.7629 71.4234 26.7127 71.6996 25.5076L71.9507 24.2523L73.1809 24.177C74.6119 24.0766 74.8629 24.2774 75.2144 25.7085C75.4655 26.6876 75.5408 26.7629 76.4195 26.8382C76.9216 26.8884 77.3484 26.8633 77.3484 26.8131C77.3484 26.6625 75.114 17.4235 74.9383 16.7708C74.8378 16.4444 74.5115 16.344 73.457 16.344C72.1766 16.344 72.0762 16.3942 71.9256 17.0219ZM73.8336 19.4822C74.0093 20.1099 74.16 21.0388 74.1851 21.566C74.2102 22.4698 74.1851 22.4949 73.3315 22.4949C72.3524 22.4949 72.3775 22.6456 72.8796 19.909C73.0302 19.0554 73.2311 18.3525 73.3315 18.3525C73.4319 18.3525 73.6579 18.8546 73.8336 19.4822Z" fill="#800080"/>
<path d="M54.1004 18.854C52.82 19.3812 51.8158 21.942 52.1422 23.8501C52.4434 25.6075 53.9247 27.1389 55.3306 27.1389C56.134 27.1389 57.2135 26.5866 57.4646 26.0092C57.8161 25.2309 57.6905 25.1556 56.3348 25.4568C55.2302 25.6828 55.1298 25.6577 54.5523 25.0049C54.251 24.6283 54 24.076 54.0502 23.7998C54.1255 23.3228 54.3013 23.2726 55.9331 23.2475C56.9123 23.2475 57.8161 23.1722 57.9165 23.0718C58.0169 22.9714 57.9667 22.2182 57.8161 21.4399C57.3642 19.1553 55.8829 18.1259 54.1004 18.854ZM55.7072 20.4106C56.1591 20.8625 56.0838 21.7914 55.5566 21.9169C54.9791 22.0926 54 21.7161 54 21.3395C54 20.9378 54.7532 20.1093 55.1298 20.1093C55.2804 20.1093 55.5314 20.2348 55.7072 20.4106Z" fill="#800080"/>
<path d="M63.1636 18.9047C63.0883 19.0804 63.013 21.7165 62.9627 24.7543L62.9125 30.2776L63.8666 30.3529L64.7955 30.4282V28.2942V26.1602L65.6491 26.6624C66.352 27.064 66.6031 27.1143 67.1554 26.8632C69.0635 25.9845 69.44 21.0638 67.7329 19.1557C67.0801 18.4527 66.3269 18.4527 65.4482 19.1306C64.8457 19.6076 64.7202 19.6327 64.3436 19.3063C63.6155 18.6787 63.2891 18.5532 63.1636 18.9047ZM66.6533 20.7625C66.9044 21.4152 66.829 24.3777 66.5529 24.9049C66.2265 25.4824 65.7244 25.5075 65.1972 24.9803C64.695 24.5033 64.6197 21.1391 65.0967 20.6621C65.5235 20.2353 66.4776 20.2855 66.6533 20.7625Z" fill="#800080"/>
<path d="M78.4531 18.9293C78.4029 19.1051 78.3777 20.9378 78.4029 22.9965L78.4782 26.7623H79.2313H79.9845L80.1352 23.8249C80.2356 22.2182 80.3862 20.7871 80.4615 20.6365C80.7377 20.2097 82.0432 20.3101 82.2189 20.762C82.2943 20.988 82.3696 22.4441 82.3696 24.0258V26.8879H83.2232H84.0517L84.1772 24.0007C84.3278 20.9378 84.5287 20.3603 85.5329 20.3603C86.2861 20.3603 86.3614 20.7369 86.4618 24.1262L86.512 26.7623L87.3405 26.8376L88.1439 26.913L88.1941 24.7037C88.2945 20.3101 88.0686 19.2557 86.9639 18.8289C86.1354 18.5276 85.2818 18.7034 84.6291 19.3561C84.0015 19.9838 84.0266 19.9838 83.2734 19.2306C82.5202 18.4774 81.8926 18.4272 81.039 19.1051C80.6875 19.3812 80.2858 19.6072 80.1352 19.6072C79.9845 19.6072 79.7586 19.3812 79.6079 19.1051C79.3067 18.5276 78.6539 18.4272 78.4531 18.9293Z" fill="#800080"/>
<path d="M97.2573 18.9798C96.3786 19.3564 96.3033 19.507 96.6548 20.0844C96.8054 20.3104 97.1569 20.3606 97.8598 20.2351C98.6381 20.1095 98.9645 20.1848 99.2909 20.5112C99.9687 21.164 99.6926 21.6912 98.5628 21.9171C96.7803 22.2937 96.228 22.6201 95.9016 23.549C95.6003 24.4779 95.7509 25.432 96.3284 26.3107C96.8054 27.0638 98.4122 27.114 99.0649 26.386C99.6423 25.7583 99.8683 25.7583 100.069 26.4111C100.195 26.7626 100.421 26.8881 100.772 26.8379C101.299 26.7626 101.324 26.6119 101.4 24.0009C101.45 22.4695 101.35 20.8125 101.199 20.3104C100.747 18.7538 99.0398 18.2015 97.2573 18.9798ZM99.5921 23.4988C99.793 24.0009 99.2407 25.3064 98.7636 25.4822C97.8096 25.8588 97.2071 23.9256 98.136 23.3984C98.7636 23.0218 99.4415 23.072 99.5921 23.4988Z" fill="#2ABFB3"/>
<path d="M108.932 19.0553C107.902 19.683 107.4 20.9382 107.4 22.8965C107.4 24.9301 107.927 25.9845 109.308 26.7126C110.137 27.1394 110.413 27.1645 111.266 26.9134C112.17 26.6373 113.25 25.5577 112.948 25.2313C112.873 25.156 112.271 25.2564 111.618 25.4071C110.438 25.7084 110.388 25.6832 109.81 25.0054C109.484 24.6288 109.233 24.0765 109.283 23.7752C109.358 23.2982 109.484 23.248 110.664 23.3233C112.647 23.4739 112.999 23.2731 112.999 22.0931C112.999 19.3315 110.94 17.8 108.932 19.0553ZM110.99 20.5868C111.467 21.5157 111.317 21.8672 110.363 21.8672C109.358 21.8672 109.057 21.4404 109.484 20.637C109.835 19.9842 110.639 19.9591 110.99 20.5868Z" fill="#2ABFB3"/>
</svg>
